<svg id="visual" viewBox="0 0 900 600" width="900" height="600" xmlns="http://www.w3.org/2000/svg" xmlns:xlink="http://www.w3.org/1999/xlink" version="1.1"><path d="M0 37L13.7 43C27.3 49 54.7 61 82 65C109.3 69 136.7 65 163.8 66C191 67 218 73 245.2 71C272.3 69 299.7 59 327 56C354.3 53 381.7 57 409 61C436.3 65 463.7 69 491 67C518.3 65 545.7 57 573 57C600.3 57 627.7 65 654.8 66C682 67 709 61 736.2 66C763.3 71 790.7 87 818 95C845.3 103 872.7 103 886.3 103L900 103L900 0L886.3 0C872.7 0 845.3 0 818 0C790.7 0 763.3 0 736.2 0C709 0 682 0 654.8 0C627.7 0 600.3 0 573 0C545.7 0 518.3 0 491 0C463.7 0 436.3 0 409 0C381.7 0 354.3 0 327 0C299.7 0 272.3 0 245.2 0C218 0 191 0 163.8 0C136.7 0 109.3 0 82 0C54.7 0 27.3 0 13.7 0L0 0Z" fill="#6c98f1"></path><path d="M0 103L13.7 122C27.3 141 54.7 179 82 196C109.3 213 136.7 209 163.8 204C191 199 218 193 245.2 180C272.3 167 299.7 147 327 148C354.3 149 381.7 171 409 176C436.3 181 463.7 169 491 171C518.3 173 545.7 189 573 187C600.3 185 627.7 165 654.8 169C682 173 709 201 736.2 215C763.3 229 790.7 229 818 218C845.3 207 872.7 185 886.3 174L900 163L900 101L886.3 101C872.7 101 845.3 101 818 93C790.7 85 763.3 69 736.2 64C709 59 682 65 654.8 64C627.7 63 600.3 55 573 55C545.7 55 518.3 63 491 65C463.7 67 436.3 63 409 59C381.7 55 354.3 51 327 54C299.7 57 272.3 67 245.2 69C218 71 191 65 163.8 64C136.7 63 109.3 67 82 63C54.7 59 27.3 47 13.7 41L0 35Z" fill="#82abf8"></path><path d="M0 253L13.7 264C27.3 275 54.7 297 82 305C109.3 313 136.7 307 163.8 304C191 301 218 301 245.2 309C272.3 317 299.7 333 327 353C354.3 373 381.7 397 409 399C436.3 401 463.7 381 491 362C518.3 343 545.7 325 573 307C600.3 289 627.7 271 654.8 285C682 299 709 345 736.2 373C763.3 401 790.7 411 818 409C845.3 407 872.7 393 886.3 386L900 379L900 161L886.3 172C872.7 183 845.3 205 818 216C790.7 227 763.3 227 736.2 213C709 199 682 171 654.8 167C627.7 163 600.3 183 573 185C545.7 187 518.3 171 491 169C463.7 167 436.3 179 409 174C381.7 169 354.3 147 327 146C299.7 145 272.3 165 245.2 178C218 191 191 197 163.8 202C136.7 207 109.3 211 82 194C54.7 177 27.3 139 13.7 120L0 101Z" fill="#99beff"></path><path d="M0 505L13.7 513C27.3 521 54.7 537 82 542C109.3 547 136.7 541 163.8 537C191 533 218 531 245.2 520C272.3 509 299.7 489 327 485C354.3 481 381.7 493 409 495C436.3 497 463.7 489 491 488C518.3 487 545.7 493 573 502C600.3 511 627.7 523 654.8 530C682 537 709 539 736.2 535C763.3 531 790.7 521 818 513C845.3 505 872.7 499 886.3 496L900 493L900 377L886.3 384C872.7 391 845.3 405 818 407C790.7 409 763.3 399 736.2 371C709 343 682 297 654.8 283C627.7 269 600.3 287 573 305C545.7 323 518.3 341 491 360C463.7 379 436.3 399 409 397C381.7 395 354.3 371 327 351C299.7 331 272.3 315 245.2 307C218 299 191 299 163.8 302C136.7 305 109.3 311 82 303C54.7 295 27.3 273 13.7 262L0 251Z" fill="#a9c9ff"></path><path d="M0 601L13.7 601C27.3 601 54.7 601 82 601C109.3 601 136.7 601 163.8 601C191 601 218 601 245.2 601C272.3 601 299.7 601 327 601C354.3 601 381.7 601 409 601C436.3 601 463.7 601 491 601C518.3 601 545.7 601 573 601C600.3 601 627.7 601 654.8 601C682 601 709 601 736.2 601C763.3 601 790.7 601 818 601C845.3 601 872.7 601 886.3 601L900 601L900 491L886.3 494C872.7 497 845.3 503 818 511C790.7 519 763.3 529 736.2 533C709 537 682 535 654.8 528C627.7 521 600.3 509 573 500C545.7 491 518.3 485 491 486C463.7 487 436.3 495 409 493C381.7 491 354.3 479 327 483C299.7 487 272.3 507 245.2 518C218 529 191 531 163.8 535C136.7 539 109.3 545 82 540C54.7 535 27.3 519 13.7 511L0 503Z" fill="#b9d3ff"></path></svg>